<svg width="38" height="38" viewBox="0 0 38 38" fill="none" xmlns="http://www.w3.org/2000/svg">
<path d="M0 19C0 8.50659 8.50659 0 19 0C29.4934 0 38 8.50659 38 19C38 29.4934 29.4934 38 19 38C8.50659 38 0 29.4934 0 19Z" fill="#42A5F5"/>
<path d="M25.969 12.375C25.969 12.563 25.3331 16.3813 23.427 17.9508C25.9791 9.9369 19.0109 5.42847 19.0109 5.42847C19.0109 5.42847 17.9306 11.3809 15.8331 13.6304C15.7171 11.0674 14.2453 9.49786 14.2453 9.49786C13.1853 14.1325 9.50002 18.1388 9.50002 21.1415C9.48916 26.3509 13.7255 30.5356 19 30.5356C24.2637 30.5356 28.5 26.3509 28.5 21.1415C28.5 17.3856 27.4306 14.6346 25.969 12.375Z" fill="white"/>
</svg>
