<svg width="38" height="38" viewBox="0 0 38 38" fill="none" xmlns="http://www.w3.org/2000/svg">
<path d="M0 19C0 8.50659 8.50659 0 19 0C29.4934 0 38 8.50659 38 19C38 29.4934 29.4934 38 19 38C8.50659 38 0 29.4934 0 19Z" fill="#D69A00"/>
<path d="M20.7361 11.3643C19.1663 12.117 19.7025 14.4752 21.4434 14.4752C22.6047 14.4752 23.3962 13.2988 22.9587 12.2231L22.4709 11.0237C22.368 10.7564 22.0259 10.7458 21.7677 10.8697L20.7361 11.3643ZM14.2221 10.3786C14.2219 10.3786 14.2218 10.3784 14.2219 10.3782C14.5627 9.53874 15.3127 9 16.1395 9H21.8319C22.6588 9 23.4088 9.53888 23.7503 10.3786L25.1534 13.8301C25.5745 14.8656 24.8943 16.04 23.8747 16.04H14.0974C13.0778 16.04 12.3983 14.8656 12.8187 13.8301L14.2223 10.3789C14.2223 10.3787 14.2222 10.3786 14.2221 10.3786ZM13.0258 20.3261C11.458 21.0796 11.9947 23.4352 13.7342 23.4352C14.8951 23.4352 15.6863 22.2593 15.249 21.1839L14.7609 19.9837C14.6578 19.7165 14.3159 19.706 14.0578 19.8301L13.0258 20.3261ZM6.52982 19.3386C6.87132 18.4989 7.62207 17.96 8.44825 17.96H14.1219C14.9487 17.96 15.6995 18.4989 16.0403 19.3386L17.4433 22.7901C17.8644 23.8256 17.1849 25 16.1646 25H6.40481C5.38518 25 4.70566 23.8256 5.12678 22.7901L6.52982 19.3386ZM31.5945 23.4352H29.7743C27.8823 23.4352 27.3024 20.8707 29.0103 20.0566L29.4859 19.8299C29.7461 19.7059 30.0825 19.7181 30.1929 19.9843L31.5949 23.4346C31.5951 23.4349 31.5948 23.4352 31.5945 23.4352ZM23.8139 17.96C22.987 17.96 22.2363 18.4989 21.8955 19.3386L20.4924 22.7901C20.0713 23.8256 20.7508 25 21.7712 25H31.5952C32.6148 25 33.2943 23.8256 32.8732 22.7901L31.4695 19.3386C31.1308 18.4989 30.3807 17.96 29.5538 17.96H23.8139Z" fill="white"/>
</svg>
