<svg width="38" height="38" viewBox="0 0 38 38" fill="none" xmlns="http://www.w3.org/2000/svg">
<path d="M0 19C0 8.50659 8.50659 0 19 0C29.4934 0 38 8.50659 38 19C38 29.4934 29.4934 38 19 38C8.50659 38 0 29.4934 0 19Z" fill="#FFD600"/>
<path d="M14.1 9.00017C14.1 8.41663 13.6408 8 13.05 8C12.4592 8 12 8.41663 12 9.00017V20.6001C12.0578 21.7046 12.4597 22.7689 13.1557 23.661C13.8592 24.5718 14.8385 25.3013 15.99 25.7705C17.1704 26.2216 17.95 27.3542 17.95 28.6179V29.9998C17.95 30.5834 18.4092 31 19 31C19.5908 31 20.05 30.5834 20.05 29.9998V28.619C20.05 27.3549 20.8295 26.2218 22.01 25.7698C23.1783 25.2934 24.1695 24.5488 24.8744 23.6183C25.5717 22.7072 25.9636 21.6215 26 20.5002V9.00017C26 8.41663 25.5408 8 24.95 8C24.3592 8 23.9 8.41663 23.9 9.00017V10.645C23.9 11.4294 23.424 12.1354 22.6969 12.4295L21.7569 12.8098C20.9409 13.1399 20.05 12.5393 20.05 11.659C20.05 11.0761 19.5908 10.6286 19 10.6286C18.4092 10.6286 17.95 11.0754 17.95 11.659C17.95 12.5393 17.0591 13.1399 16.2431 12.8098L15.3031 12.4295C14.576 12.1354 14.1 11.4294 14.1 10.645V9.00017Z" fill="white"/>
</svg>
